<?xml version="1.0" encoding="UTF-8"?>
<svg id="Layer_2" data-name="Layer 2" xmlns="http://www.w3.org/2000/svg" viewBox="0 0 443.1 620.35">
  <defs>
    <style>
      .cls-1, .cls-2, .cls-3 {
        fill: none;
      }

      .cls-2 {
        stroke-linecap: round;
      }

      .cls-2, .cls-3 {
        stroke: #fff;
        stroke-miterlimit: 10;
        stroke-width: 2px;
      }
    </style>
  </defs>
  <g id="Test_montage_photo" data-name="Test montage photo">
    <g id="CIgogne_seule_noir_pour_site" data-name="CIgogne seule noir pour site">
      <path class="cls-2" d="M58.58,30.17c1.19-1.28-.12-27.41,27.44-29.15,13.42-.41,18.73,10.92,24.42,21.17,5.66,10.25,23.77,53.24,28.27,84.55"/>
      <path class="cls-3" d="M372.34,338.41c41.23,26.4,53.4,61.24,69.9,88.63,0,0-48.26-70.33-190.61-105.7-78.96-18.32-140.11-59.15-141.53-137.96,1.13-63.51-2.85-124.55-19.54-140.81-5.72-4.91-9.67-5.55-19.83-3.66-.78.15-1.66.32-2.41.46"/>
      <path class="cls-2" d="M68.31,39.37C33.49,46.25,14.07,50.72,1.03,54.35c-1.39.38,48.61-20.47,57.55-24.19"/>
      <line class="cls-1" x1="138.71" y1="106.73" x2="372.34" y2="338.41"/>
      <path class="cls-3" d="M138.7,106.74c23.58-21.11,57.18,11.85,67.98,22.53l187.36,213c-51.95-2.58-292.56-104.28-271.54-205.42,4.24-14.9,9.87-24.45,16.2-30.11"/>
      <line class="cls-3" x1="205.72" y1="307.37" x2="205.72" y2="619.35"/>
      <polyline class="cls-3" points="205.72 307.37 264.67 430.61 139.31 557.94"/>
      <line class="cls-3" x1="218.56" y1="619.35" x2="192.89" y2="619.35"/>
      <line class="cls-3" x1="148.08" y1="568.02" x2="138.76" y2="558.64"/>
    </g>
  </g>
</svg>