<?xml version="1.0" encoding="UTF-8"?>
<svg id="Calque_2" data-name="Calque 2" xmlns="http://www.w3.org/2000/svg" viewBox="0 0 592.94 237.91">
  <defs>
    <style>
      .cls-1 {
        fill: #fff;
      }

      .cls-2 {
        fill: #334264;
      }

      .cls-3, .cls-4, .cls-5, .cls-6, .cls-7 {
        fill: none;
      }

      .cls-4, .cls-8, .cls-5, .cls-6, .cls-7 {
        stroke-width: 1.5px;
      }

      .cls-4, .cls-8, .cls-6 {
        stroke-linecap: round;
      }

      .cls-4, .cls-8, .cls-6, .cls-7 {
        stroke: #fff;
      }

      .cls-4, .cls-5, .cls-7 {
        stroke-miterlimit: 10;
      }

      .cls-8 {
        fill: #304567;
      }

      .cls-8, .cls-6 {
        stroke-linejoin: round;
      }

      .cls-5 {
        stroke: #231f20;
      }
    </style>
  </defs>
  <g id="Logo_final_bannière" data-name="Logo final bannière">
    <rect class="cls-2" width="592.94" height="237.91"/>
    <path class="cls-1" d="M298.07,57.5h17.3v4.56h-22.72V21.94h5.42v35.56Z"/>
    <path class="cls-1" d="M320.15,19.84c.54.9.93,1.79,1.17,2.69.24.9.36,1.79.36,2.69,0,1.7-.41,3.32-1.24,4.86-.83,1.54-1.98,2.95-3.45,4.24l-1.54-.95c-.15-.09-.25-.2-.29-.31-.05-.11-.07-.22-.07-.34,0-.26.09-.49.28-.67.3-.35.59-.74.87-1.16s.53-.86.75-1.32c.22-.46.4-.94.53-1.44.13-.5.2-1.04.2-1.6,0-.6-.09-1.21-.27-1.85s-.48-1.31-.91-2.02c-.13-.21-.2-.41-.2-.62,0-.45.25-.77.75-.98l3.04-1.23Z"/>
    <path class="cls-1" d="M361.29,62.06h-4.19c-.48,0-.88-.12-1.17-.36-.3-.24-.52-.55-.67-.92l-3.74-9.69h-17.95l-3.74,9.69c-.13.34-.35.63-.67.9-.32.26-.71.39-1.17.39h-4.19l15.99-40.12h5.5l15.99,40.12ZM335.08,47.17h14.93l-6.28-16.32c-.41-1.01-.81-2.27-1.2-3.78-.21.77-.41,1.47-.6,2.11-.2.64-.39,1.21-.57,1.69l-6.28,16.3Z"/>
    <path class="cls-1" d="M390.89,48.97c.2.5.39.99.57,1.5.19-.52.38-1.02.59-1.5.2-.48.44-.96.7-1.44l13.54-24.67c.24-.43.49-.69.75-.78.26-.09.63-.14,1.12-.14h3.99v40.12h-4.75v-29.48c0-.39,0-.81.03-1.26s.05-.91.08-1.37l-13.71,25.09c-.46.84-1.12,1.26-1.95,1.26h-.78c-.84,0-1.49-.42-1.95-1.26l-14.01-25.17c.06.49.1.96.13,1.43.03.47.04.9.04,1.29v29.48h-4.75V21.94h3.99c.48,0,.86.05,1.12.14.26.09.51.36.75.78l13.82,24.7c.26.45.49.92.68,1.41Z"/>
    <path class="cls-1" d="M432.49,62.06h-5.42V21.94h5.42v40.12Z"/>
    <path class="cls-1" d="M216.5,125.63c-7.39,3.71-14.6,3.92-21.61.62-7.09-3.33-11.24-9.79-12.42-19.38-1.19-9.58,1.36-18.44,7.63-26.56,6.28-8.12,15.02-12.19,26.24-12.19,5.27,0,10.58.98,15.93,2.94,5.35,1.96,10.75,4.56,16.21,7.81,3.6,2.12,7.13,2.52,10.58,1.19.74-.33,1.3-.56,1.67-.69.82-.17,1.33.08,1.53.75.2.67-.14,1.4-1.03,2.19-2.67,2.17-5.37,4.3-8.08,6.41-2.71,2.1-5.37,4.28-7.97,6.53-.93.83-1.95.85-3.06.06-3.34-2.75-7.96-5.62-13.84-8.62s-11.84-4.5-17.85-4.5c-7.06,0-12.82,2.25-17.3,6.75-4.48,4.5-6.61,10.24-6.41,17.22.2,6.98,2.92,12.41,8.16,16.28,5.24,3.88,11.94,4.02,20.11.44.67-.29,1.23-.36,1.67-.22.45.15.75.4.92.75.17.35.17.75,0,1.19s-.53.78-1.09,1.03ZM254.38,126.31c-.33.38-.69.56-1.06.56-.56,0-1.07-.38-1.53-1.16-.46-.77-.86-1.36-1.2-1.78-3.12-3.5-5.81-4.21-8.08-2.12-.45.33-.52.79-.22,1.38,1.56,2.71,2.86,5.29,3.9,7.75,2.23,5.46,3.02,10.96,2.37,16.5-.65,5.54-2.33,10.52-5.04,14.94-2.71,4.42-6.23,8.03-10.56,10.84-4.33,2.81-9.05,4.22-14.18,4.22-6.57,0-12.24-1.74-16.99-5.22-4.75-3.48-7.34-8.47-7.74-14.97l1-5.12c.33-1.71.74-3.4,1.23-5.06,1.34-4.29,1.17-7.19-.5-8.69-.93-.83-1.99-1.25-3.18-1.25-1.11-.04-1.67-.55-1.67-1.53s.56-1.49,1.67-1.53c.93,0,1.93.12,3.01.38s2.08.46,3.01.62c3.97.96,7.06,2.76,9.25,5.41,2.19,2.65,2.53,6.97,1,12.97-1.45,5.54-1.64,10.23-.58,14.06,1.06,3.83,4.48,5.94,10.28,6.31,5.09.25,9.04-1.35,11.87-4.81,2.82-3.46,4.6-8,5.35-13.62.52-3.92-.24-8.29-2.28-13.12-2.04-4.83-4.77-9.69-8.19-14.56-7.76-11-10.83-18.82-9.19-23.47,1.63-4.65,5.24-9.74,10.81-15.28v-.06c.19-.21.48-.31.89-.31.93,0,1.39.5,1.39,1.5,0,.42-.17.81-.5,1.19-3.16,3.75-3.32,7.52-.5,11.31,2.01,2.75,3.98,5.47,5.93,8.16,1.95,2.69,3.76,5.34,5.43,7.97.48.67.98.69,1.5.06,1.56-2.21,3.14-4.41,4.73-6.59s3.21-4.41,4.85-6.66c.67-.92,1.39-1.02,2.17-.31,1.34,1.25,2.65,2.51,3.93,3.78,1.28,1.27,2.59,2.53,3.93,3.78.33.29.7.65,1.11,1.06.41.42.61.85.61,1.31,0,.38-.25.87-.75,1.47-.5.6-.96,1.16-1.37,1.66l-5.9,8.06Z"/>
    <path class="cls-1" d="M292.19,115.19l-.06,30.31c0,1.33.3,2.19.89,2.56l4.01,2.62c.85.58,2.15-.44,3.9-3.06.37-.54.84-.66,1.39-.34.56.31.56.84,0,1.59-3.9,4.88-6.89,9.67-8.97,14.38-.63.96-1.32.96-2.07,0-2.09-2.71-4.04-4.77-5.85-6.19-1.81-1.42-4.46-2.58-7.96-3.5-.67-.21-1-.54-1-1s.24-.79.72-1c2.49-.46,3.71-2.85,3.68-7.19v-26.44c0-4.25-.71-6.85-2.12-7.81-1.63-1.21-2.97-.77-4.01,1.31-.41.88-.87,1.08-1.39.62-.52-.46-.5-1.19.06-2.19,1.08-1.92,2.11-3.88,3.09-5.88.98-2,2-4,3.04-6,.63-1.25,1.47-1.48,2.51-.69,5.49,2.96,8.77,6.71,9.85,11.25.11.42.34.68.67.78.33.1.63-.03.89-.41l8.58-11.06c.22-.25.48-.36.78-.34.3.02.54.2.72.53l5.85,12.56c.15.38.11.73-.11,1.06l-6.69,9c-.26.29-.55.42-.86.38-.32-.04-.53-.23-.64-.56l-4.51-9.38c-.15-.25-.38-.41-.7-.47-.32-.06-.6.05-.86.34l-2.62,3.56c-.15.17-.22.38-.22.62Z"/>
    <path class="cls-1" d="M327.36,147.38l-.39-34.25c0-.79-.11-1.44-.33-1.94-.89-1.62-1.65-2.02-2.28-1.19l-2.23,2.56c-.59.75-1.16.83-1.7.25-.54-.58-.46-1.4.25-2.44,1.63-2.29,3.1-4.58,4.4-6.88,1.3-2.29,2.64-4.56,4.01-6.81.59-.79,1.28-.77,2.06.06,1.56,2.12,3.08,3.99,4.57,5.59,1.48,1.6,3.6,3.3,6.35,5.09.78.33,1.12.73,1.03,1.19-.09.46-.34.71-.75.75-.97.42-1.82,1.14-2.56,2.16-.74,1.02-1.11,2.72-1.11,5.09v26.44c0,4.25.71,6.85,2.12,7.81,1.63,1.08,2.97.62,4.01-1.38.37-.79.83-.97,1.37-.53.54.44.53,1.16-.03,2.16-1.11,1.96-2.15,3.93-3.12,5.91-.97,1.98-1.95,3.95-2.95,5.91-.71,1.17-1.58,1.42-2.62.75-3.34-1.79-5.86-3.98-7.55-6.56-1.69-2.58-2.53-5.83-2.53-9.75ZM335.44,73.19c4.12,0,6,2.23,5.63,6.69-.22,2.25-1.48,4.51-3.76,6.78-2.28,2.27-4.1,3.39-5.43,3.34-1.34,0-2.36-1.19-3.06-3.56-.71-2.38-.98-4.56-.84-6.56.11-1.92.94-3.51,2.48-4.78,1.54-1.27,3.2-1.91,4.99-1.91Z"/>
    <path class="cls-1" d="M376.91,111.13l-.06,35c0,1.29.28,2.15.84,2.56l4.01,2.56c.78.75,2.08-.25,3.9-3,.33-.54.79-.62,1.37-.25.57.38.6.88.08,1.5-3.97,4.88-6.96,9.67-8.97,14.38-.63.88-1.32.88-2.06,0-2.08-2.75-4.01-4.81-5.79-6.19-1.78-1.38-4.44-2.54-7.97-3.5-.6-.12-.91-.44-.95-.94s.19-.85.67-1.06c2.49-.67,3.71-3.06,3.68-7.19l-.06-33.81c.04-.75-.24-1.12-.84-1.12h-6.57c-.52,0-.85-.23-1-.69-.15-.46.02-.85.5-1.19,4.46-3.54,9-7.81,13.62-12.81,4.62-5,8.83-9.75,12.62-14.25.48-.58.96-.7,1.42-.34.46.35.47.87.03,1.53-1.71,2.38-3.43,5.46-5.15,9.25-1.73,3.79-2.78,7.25-3.15,10.38-.07.42-.06.73.06.94.22.25.48.38.78.38h9.64c.26,0,.48.1.67.31.19.29.28.56.28.81l-.22,4.69c-.08.67-.39,1-.95,1h-9.64c-.52,0-.78.35-.78,1.06Z"/>
    <path class="cls-1" d="M418.04,84.63c5.2-1.54,9.97-1.19,14.32,1.06,2.93,1.58,5.22,3.77,6.85,6.56,1.63,2.79,2.28,5.92,1.95,9.38-.33,3.46-1.35,6.02-3.04,7.69-1.69,1.67-3.07,2.96-4.15,3.88-1.08.92-2.1,1.88-3.06,2.88-1.89,2-2.04,3.79-.45,5.38,5.01,4.88,7.9,8.98,8.66,12.31.76,3.33.23,6.27-1.59,8.81-2.53,3.5-5.21,6.82-8.05,9.97-2.84,3.15-5.65,6.32-8.44,9.53-1.37,1.5-2.21,1.42-2.51-.25-.48-2.29-2.67-4.3-6.55-6.03-3.88-1.73-7.98-3.38-12.28-4.97-.78-.33-.84-.96-.17-1.88,1-1.17,2.04-2.33,3.12-3.5,1.08-1.17,2.15-2.31,3.23-3.44,1.67-1.75,2.24-3.3,1.7-4.66-.54-1.35-1.53-2.88-2.98-4.59-3.64-4.25-5.4-8.23-5.27-11.94.13-3.71,1.33-6.98,3.59-9.81,2.12-2.62,4.5-5.03,7.16-7.22,2.65-2.19,5.17-4.63,7.55-7.34.3-.29.69-.19,1.17.31,4.98,4.96,9.13,7.46,12.45,7.5,3.32.04,5.49-1.06,6.49-3.31,1-2.29.91-4.68-.28-7.16-1.19-2.48-3.12-4.53-5.79-6.16-4.05-2.25-8.49-2.46-13.31-.62-.97.42-1.54.19-1.73-.69-.19-.88.28-1.44,1.39-1.69ZM416.81,127.75c.45.38.85.35,1.23-.06l10.36-11.38c.33-.42.44-.8.31-1.16-.13-.35-.42-.55-.86-.59-2.12-.25-4.46-1.17-7.02-2.75-4.12-2.62-6.82-4.4-8.08-5.31-1.26-.92-2.88-.08-4.85,2.5-2.49,3.29-2.5,6.44-.03,9.44,2.47,3,5.45,6.1,8.94,9.31ZM409.13,140.75c-.37.71-.26,1.25.33,1.62,2.64,1.38,5.27,2.73,7.91,4.06,2.64,1.33,5.29,2.62,7.97,3.88,1.86.92,3.71-.27,5.57-3.56,2.3-4.12-.74-9.54-9.14-16.25-1.3-.88-2.9-.46-4.79,1.25l-7.86,9Z"/>
    <path class="cls-1" d="M467.52,163.88c-.08-1-.55-1.75-1.42-2.25s-1.61-1-2.2-1.5c-4.27-3.25-7.29-7.22-9.05-11.91-1.76-4.69-2.76-9.66-2.98-14.91-.45-11.88,2.41-20.92,8.58-27.12,2.19-2.21,4.72-4.01,7.58-5.41,2.86-1.4,5.79-2.53,8.8-3.41.82-.17,1.5.35,2.06,1.56l6.52,14.75c.52,1.21.39,1.9-.39,2.06-2.75.46-5.26,1.54-7.52,3.25-1.04.75-1.89.38-2.56-1.12l-5.79-13.5c-.37-.88-1.04-1-2.01-.38-2.45,1.62-4.01,5.5-4.68,11.62-.67,6.12-.52,11.75.45,16.88,1.74,9.62,4.77,15.79,9.08,18.5,4.31,2.71,8.62,3.12,12.92,1.25.56-.29.98-.25,1.28.12.3.54.2.94-.28,1.19-3.01,1.71-5.88,3.46-8.61,5.25-2.73,1.79-5.17,3.67-7.33,5.62-.33.25-.83.33-1.48.25-.65-.08-.97-.35-.97-.81Z"/>
    <path class="cls-1" d="M497.27,79.88c-.48-.79-.45-1.41.11-1.84.56-.44,1.11-.28,1.67.47,1.63,2.29,2.95,4.75,3.96,7.38.11.42.37.62.78.62.33.08.63-.08.89-.5,2.15-4.33,5.54-7.68,10.17-10.03,4.62-2.35,9.31-3.3,14.07-2.84.97.04,1.45.48,1.45,1.31s-.46,1.21-1.39,1.12c-3.9-.29-7.3.71-10.19,3-2.9,2.29-4.33,6.71-4.29,13.25l.11,14c0,.42.15.72.45.91s.59.18.89-.03c2.04-1.25,4.09-2.62,6.16-4.12,2.06-1.5,3.96-3.19,5.71-5.06,1.37-1.54,2.15-1.27,2.34.81.15,1.54.72,2.92,1.73,4.12,1,1.21,1.93,2.4,2.79,3.56,5.01,7.17,7.59,14.92,7.74,23.25.26,12.25-3.58,23.07-11.53,32.47-7.95,9.4-15.17,16.57-21.67,21.53-.89.71-1.55.82-1.98.34-.43-.48-.31-1.03.36-1.66,5.24-5.21,10.52-10.9,15.85-17.06,5.33-6.17,7.75-15.94,7.27-29.31-.22-5.25-.94-10.2-2.14-14.84-1.21-4.65-3.41-8.51-6.6-11.59-1.63-1.54-3.9-1.52-6.8.06-.33.12-.5.44-.5.94l.22,37.75c0,3.38,1.21,4.77,3.62,4.19.52-.17.98-.48,1.39-.94.41-.46.86-.86,1.37-1.22.5-.35.96-.32,1.37.09.41.42.41.85,0,1.31-1.82,2.25-3.66,4.33-5.52,6.25-1.86,1.92-3.29,4.02-4.29,6.31-.45,1-1.11,1-2.01,0-3.31-4-6.91-7-10.81-9-1.26-.75-1.36-1.44-.28-2.06,2.38-.92,3.55-3.67,3.51-8.25l-.11-41.75c-.04-5.62-.6-10.23-1.7-13.81-1.1-3.58-2.48-6.62-4.15-9.12Z"/>
    <g>
      <path class="cls-1" d="M265.59,201.67v14.35h-4.62v-34.39h9.7c2.17,0,4.05.22,5.63.66,1.58.44,2.89,1.08,3.92,1.91,1.03.83,1.79,1.84,2.29,3.01.5,1.18.74,2.49.74,3.95,0,1.22-.19,2.35-.57,3.41-.38,1.06-.94,2-1.67,2.84s-1.61,1.56-2.66,2.15-2.23,1.04-3.56,1.34c.57.34,1.09.82,1.53,1.46l10.01,13.66h-4.12c-.85,0-1.47-.33-1.87-.98l-8.91-12.29c-.27-.38-.57-.66-.89-.83s-.8-.25-1.44-.25h-3.52ZM265.59,198.29h4.86c1.36,0,2.55-.16,3.58-.49,1.03-.33,1.89-.79,2.59-1.39.69-.6,1.22-1.32,1.57-2.15.35-.83.53-1.75.53-2.76,0-2.05-.67-3.59-2.02-4.63-1.35-1.04-3.36-1.56-6.02-1.56h-5.08v12.98Z"/>
      <path class="cls-1" d="M300.27,191.33c1.45,0,2.79.24,4.02.73s2.29,1.19,3.19,2.11,1.59,2.06,2.1,3.41c.5,1.35.75,2.89.75,4.62,0,.67-.07,1.12-.22,1.34-.14.22-.42.34-.81.34h-16.14c.03,1.54.24,2.87.62,4.01s.91,2.08,1.58,2.84c.67.76,1.47,1.33,2.39,1.7s1.96.56,3.11.56c1.07,0,1.99-.12,2.77-.37.77-.25,1.44-.52,2-.8.56-.29,1.03-.56,1.4-.8.38-.25.7-.37.97-.37.35,0,.62.14.81.41l1.2,1.56c-.53.64-1.16,1.2-1.89,1.67-.73.47-1.52.86-2.36,1.16-.84.3-1.71.53-2.6.68-.89.15-1.78.23-2.66.23-1.68,0-3.22-.28-4.63-.85-1.41-.57-2.63-1.4-3.66-2.5-1.03-1.1-1.83-2.45-2.41-4.07-.58-1.62-.86-3.47-.86-5.57,0-1.7.26-3.28.78-4.75.52-1.47,1.27-2.75,2.24-3.83.97-1.08,2.16-1.93,3.57-2.54,1.41-.62,2.99-.92,4.74-.92ZM300.37,194.47c-2.06,0-3.68.6-4.86,1.79-1.18,1.19-1.92,2.84-2.2,4.96h13.2c0-.99-.14-1.9-.41-2.72-.27-.82-.67-1.54-1.2-2.14-.53-.6-1.17-1.06-1.93-1.39-.76-.33-1.62-.49-2.6-.49Z"/>
      <path class="cls-1" d="M329.66,195.72c-.19.35-.49.53-.89.53-.24,0-.51-.09-.81-.26-.3-.18-.67-.37-1.11-.59-.44-.22-.96-.42-1.57-.6-.61-.18-1.33-.28-2.16-.28-.72,0-1.37.09-1.94.28-.57.18-1.07.44-1.47.76s-.72.69-.93,1.12c-.22.42-.32.88-.32,1.38,0,.62.18,1.14.54,1.56s.83.78,1.43,1.08c.59.3,1.26.57,2.01.8.75.23,1.52.48,2.31.74.79.26,1.56.56,2.31.88.75.32,1.42.72,2.01,1.2.59.48,1.07,1.07,1.42,1.76.36.7.54,1.53.54,2.51,0,1.12-.2,2.16-.6,3.11s-.99,1.78-1.77,2.47c-.78.7-1.74,1.24-2.87,1.64-1.13.4-2.44.6-3.93.6-1.69,0-3.23-.28-4.6-.83-1.37-.55-2.54-1.26-3.5-2.12l1.01-1.63c.13-.21.28-.37.46-.48.17-.11.41-.17.69-.17s.59.11.91.34c.32.22.71.47,1.16.74.46.27,1.01.52,1.65.74.65.22,1.46.34,2.43.34.83,0,1.56-.11,2.18-.32.62-.22,1.14-.51,1.56-.88.42-.37.72-.79.92-1.27.2-.48.3-.99.3-1.54,0-.67-.18-1.23-.54-1.67-.36-.44-.83-.82-1.43-1.13-.59-.31-1.27-.58-2.02-.82-.76-.23-1.53-.48-2.32-.73s-1.56-.55-2.32-.88-1.43-.74-2.02-1.24c-.59-.5-1.07-1.11-1.42-1.84-.36-.73-.54-1.61-.54-2.65,0-.93.19-1.82.57-2.68.38-.86.94-1.61,1.68-2.26.73-.65,1.64-1.16,2.71-1.55,1.07-.38,2.29-.58,3.67-.58,1.6,0,3.03.25,4.3.76,1.27.5,2.37,1.2,3.29,2.08l-.96,1.56Z"/>
      <path class="cls-1" d="M343.91,216.41c-1.92,0-3.39-.54-4.42-1.61-1.03-1.07-1.54-2.62-1.54-4.63v-14.88h-2.92c-.26,0-.47-.08-.65-.23s-.26-.39-.26-.71v-1.7l3.98-.5.98-7.51c.03-.24.14-.44.31-.59.17-.15.4-.23.67-.23h2.16v8.38h6.95v3.1h-6.95v14.59c0,1.02.25,1.78.74,2.28.49.5,1.13.74,1.92.74.45,0,.83-.06,1.16-.18s.61-.25.85-.4c.24-.14.44-.28.61-.4.17-.12.32-.18.44-.18.22,0,.42.14.6.41l1.25,2.04c-.74.69-1.62,1.23-2.66,1.62s-2.11.59-3.21.59Z"/>
      <path class="cls-1" d="M372.24,216.03h-1.89c-.42,0-.75-.06-1.01-.19-.26-.13-.42-.4-.5-.82l-.48-2.26c-.64.58-1.26,1.09-1.87,1.55-.61.46-1.25.84-1.92,1.15-.67.31-1.38.55-2.14.71-.76.16-1.6.24-2.53.24s-1.82-.13-2.65-.4c-.82-.27-1.54-.66-2.14-1.19-.61-.53-1.09-1.2-1.45-2.01-.36-.81-.54-1.77-.54-2.88,0-.96.26-1.89.79-2.78.53-.89,1.38-1.68,2.55-2.37,1.17-.69,2.71-1.26,4.61-1.7,1.9-.44,4.22-.66,6.97-.66v-1.91c0-1.9-.4-3.34-1.21-4.31-.81-.97-2-1.46-3.58-1.46-1.04,0-1.91.13-2.62.4-.71.26-1.33.56-1.84.89-.52.33-.97.62-1.34.89-.38.26-.75.4-1.11.4-.29,0-.54-.08-.75-.23-.22-.15-.39-.34-.51-.56l-.77-1.37c1.34-1.3,2.79-2.26,4.33-2.9,1.55-.64,3.27-.96,5.15-.96,1.36,0,2.56.22,3.62.67,1.05.45,1.94,1.07,2.66,1.87.72.8,1.26,1.77,1.63,2.9s.55,2.38.55,3.74v15.55ZM361.18,213.41c.75,0,1.44-.08,2.06-.23s1.21-.37,1.76-.65c.55-.28,1.08-.62,1.58-1.02.5-.4.99-.86,1.47-1.37v-5.02c-1.96,0-3.63.12-5,.38-1.37.25-2.49.58-3.35.98s-1.49.88-1.88,1.42c-.39.55-.59,1.16-.59,1.83s.1,1.2.31,1.67c.21.47.49.85.84,1.15s.77.51,1.25.65c.48.14,1,.21,1.56.21Z"/>
      <path class="cls-1" d="M382.4,191.71v15.5c0,1.84.42,3.26,1.27,4.27.85,1.01,2.12,1.51,3.83,1.51,1.25,0,2.42-.3,3.52-.89,1.1-.59,2.12-1.42,3.04-2.47v-17.93h4.26v24.31h-2.54c-.61,0-.99-.3-1.15-.89l-.33-2.62c-1.05,1.17-2.24,2.11-3.54,2.82-1.31.71-2.81,1.07-4.5,1.07-1.33,0-2.5-.22-3.51-.66-1.01-.44-1.86-1.06-2.55-1.86s-1.2-1.77-1.54-2.9c-.34-1.14-.51-2.39-.51-3.77v-15.5h4.26Z"/>
      <path class="cls-1" d="M405.34,216.03v-24.31h2.44c.46,0,.78.09.96.26s.3.48.36.91l.29,3.79c.83-1.7,1.86-3.02,3.08-3.97,1.22-.95,2.65-1.43,4.3-1.43.67,0,1.28.08,1.82.23s1.05.36,1.51.64l-.55,3.19c-.11.4-.36.6-.74.6-.22,0-.57-.08-1.03-.23-.46-.15-1.11-.23-1.94-.23-1.49,0-2.73.43-3.72,1.3s-1.83,2.12-2.5,3.77v15.48h-4.26Z"/>
      <path class="cls-1" d="M441.55,216.03h-1.89c-.42,0-.75-.06-1.01-.19-.26-.13-.42-.4-.5-.82l-.48-2.26c-.64.58-1.26,1.09-1.87,1.55-.61.46-1.25.84-1.92,1.15-.67.31-1.38.55-2.14.71-.76.16-1.6.24-2.53.24s-1.82-.13-2.65-.4c-.82-.27-1.54-.66-2.14-1.19-.61-.53-1.09-1.2-1.45-2.01-.36-.81-.54-1.77-.54-2.88,0-.96.26-1.89.79-2.78.53-.89,1.38-1.68,2.55-2.37,1.17-.69,2.71-1.26,4.61-1.7,1.9-.44,4.22-.66,6.97-.66v-1.91c0-1.9-.4-3.34-1.21-4.31-.81-.97-2-1.46-3.58-1.46-1.04,0-1.91.13-2.62.4-.71.26-1.33.56-1.84.89-.52.33-.97.62-1.34.89-.38.26-.75.4-1.11.4-.29,0-.54-.08-.75-.23-.22-.15-.39-.34-.51-.56l-.77-1.37c1.34-1.3,2.79-2.26,4.33-2.9,1.55-.64,3.27-.96,5.15-.96,1.36,0,2.56.22,3.62.67,1.05.45,1.94,1.07,2.66,1.87.72.8,1.26,1.77,1.63,2.9s.55,2.38.55,3.74v15.55ZM430.49,213.41c.75,0,1.44-.08,2.06-.23s1.21-.37,1.76-.65c.55-.28,1.08-.62,1.58-1.02.5-.4.99-.86,1.47-1.37v-5.02c-1.96,0-3.63.12-5,.38-1.37.25-2.49.58-3.35.98s-1.49.88-1.88,1.42c-.39.55-.59,1.16-.59,1.83s.1,1.2.31,1.67c.21.47.49.85.84,1.15s.77.51,1.25.65c.48.14,1,.21,1.56.21Z"/>
      <path class="cls-1" d="M448.02,216.03v-24.31h2.54c.61,0,.99.3,1.15.89l.33,2.64c1.05-1.17,2.23-2.11,3.53-2.83,1.3-.72,2.81-1.08,4.51-1.08,1.33,0,2.5.22,3.51.66,1.01.44,1.86,1.06,2.54,1.87.68.81,1.19,1.78,1.54,2.92.35,1.14.53,2.39.53,3.77v15.48h-4.26v-15.48c0-1.84-.42-3.27-1.26-4.28-.84-1.02-2.12-1.52-3.84-1.52-1.26,0-2.44.3-3.53.91-1.09.61-2.1,1.43-3.03,2.47v17.9h-4.26Z"/>
      <path class="cls-1" d="M482,216.41c-1.92,0-3.39-.54-4.42-1.61-1.03-1.07-1.54-2.62-1.54-4.63v-14.88h-2.92c-.26,0-.47-.08-.65-.23s-.26-.39-.26-.71v-1.7l3.98-.5.98-7.51c.03-.24.14-.44.31-.59.17-.15.4-.23.67-.23h2.16v8.38h6.95v3.1h-6.95v14.59c0,1.02.25,1.78.74,2.28.49.5,1.13.74,1.92.74.45,0,.83-.06,1.16-.18s.61-.25.85-.4c.24-.14.44-.28.61-.4.17-.12.32-.18.44-.18.22,0,.42.14.6.41l1.25,2.04c-.74.69-1.62,1.23-2.66,1.62s-2.11.59-3.21.59Z"/>
    </g>
    <path class="cls-6" d="M147.36,49.16c-.29-.32.04-6.85-6.84-7.28-3.35-.1-4.68,2.73-6.09,5.28-1.42,2.56-5.94,13.3-7.06,21.12h0"/>
    <path class="cls-7" d="M69.03,126.12c-10.29,6.59-13.33,15.29-17.45,22.13,0,0,12.05-17.56,47.59-26.39,19.71-4.58,34.98-14.77,35.33-34.45-.28-15.86.71-31.1,4.88-35.16,1.43-1.22,2.41-1.38,4.95-.91.2.04.39.08.58.11"/>
    <line class="cls-5" x1="147.47" y1="51.47" x2="147.47" y2="51.47"/>
    <path class="cls-8" d="M144.94,51.46c8.7,1.72,13.55,2.84,16.8,3.74.35.1-12.14-5.11-14.37-6.04"/>
    <line class="cls-3" x1="127.18" y1="68.47" x2="69.03" y2="126.12"/>
    <line class="cls-5" x1="147.47" y1="51.47" x2="147.47" y2="51.47"/>
    <path class="cls-7" d="M127.37,68.28c-5.89-5.27-14.27,2.96-16.97,5.63l-46.79,53.18c12.97-.65,73.04-26.03,67.8-51.29-1.06-3.72-2.46-6.1-4.04-7.52"/>
    <line class="cls-7" x1="110.63" y1="118.37" x2="110.63" y2="196.27"/>
    <polyline class="cls-4" points="110.63 118.37 95.92 149.15 127.21 180.93"/>
    <line class="cls-4" x1="107.43" y1="196.27" x2="113.84" y2="196.27"/>
    <line class="cls-4" x1="125.02" y1="183.45" x2="127.35" y2="181.11"/>
  </g>
</svg>