<?xml version="1.0" encoding="UTF-8"?>
<svg id="Layer_2" data-name="Layer 2" xmlns="http://www.w3.org/2000/svg" viewBox="0 0 60 24.07">
  <defs>
    <style>
      .cls-1, .cls-2, .cls-3, .cls-4 {
        fill: #fff;
      }

      .cls-2 {
        stroke-linecap: square;
      }

      .cls-2, .cls-5, .cls-6, .cls-7, .cls-3, .cls-4, .cls-8, .cls-9 {
        stroke-miterlimit: 10;
        stroke-width: .25px;
      }

      .cls-2, .cls-3, .cls-8, .cls-9 {
        stroke: #fff;
      }

      .cls-10 {
        fill: #334264;
      }

      .cls-5, .cls-6, .cls-7 {
        stroke: #000;
      }

      .cls-5, .cls-6, .cls-8, .cls-9 {
        fill: none;
      }

      .cls-5, .cls-9 {
        stroke-linecap: round;
      }

      .cls-7 {
        fill: #231f20;
      }

      .cls-4 {
        stroke: #304567;
      }
    </style>
  </defs>
  <g id="Logo_bannière_petit" data-name="Logo bannière petit">
    <rect class="cls-10" width="60" height="24.07"/>
    <path class="cls-1" d="M30.16,5.82h1.75v.46h-2.3V2.22h.55v3.6Z"/>
    <path class="cls-1" d="M32.4,2.01c.05.09.09.18.12.27.02.09.04.18.04.27,0,.17-.04.34-.13.49-.08.16-.2.3-.35.43l-.16-.1s-.03-.02-.03-.03c0-.01,0-.02,0-.03,0-.03,0-.05.03-.07.03-.04.06-.08.09-.12s.05-.09.08-.13c.02-.05.04-.09.05-.15.01-.05.02-.1.02-.16,0-.06,0-.12-.03-.19s-.05-.13-.09-.2c-.01-.02-.02-.04-.02-.06,0-.05.03-.08.08-.1l.31-.12Z"/>
    <path class="cls-1" d="M36.56,6.28h-.42s-.09-.01-.12-.04c-.03-.02-.05-.06-.07-.09l-.38-.98h-1.82l-.38.98s-.04.06-.07.09c-.03.03-.07.04-.12.04h-.42l1.62-4.06h.56l1.62,4.06ZM33.91,4.77h1.51l-.64-1.65c-.04-.1-.08-.23-.12-.38-.02.08-.04.15-.06.21-.02.07-.04.12-.06.17l-.64,1.65Z"/>
    <path class="cls-1" d="M39.55,4.96c.02.05.04.1.06.15.02-.05.04-.1.06-.15.02-.05.04-.1.07-.15l1.37-2.5s.05-.07.08-.08c.03,0,.06-.01.11-.01h.4v4.06h-.48v-2.98s0-.08,0-.13,0-.09,0-.14l-1.39,2.54c-.05.08-.11.13-.2.13h-.08c-.08,0-.15-.04-.2-.13l-1.42-2.55s0,.1.01.14c0,.05,0,.09,0,.13v2.98h-.48V2.22h.4s.09,0,.11.01c.03,0,.05.04.08.08l1.4,2.5s.05.09.07.14Z"/>
    <path class="cls-1" d="M43.76,6.28h-.55V2.22h.55v4.06Z"/>
    <path class="cls-1" d="M21.91,12.71c-.75.38-1.48.4-2.19.06-.72-.34-1.14-.99-1.26-1.96-.12-.97.14-1.87.77-2.69s1.52-1.23,2.66-1.23c.53,0,1.07.1,1.61.3.54.2,1.09.46,1.64.79.36.22.72.26,1.07.12.08-.03.13-.06.17-.07.08-.02.13,0,.16.08.02.07-.01.14-.1.22-.27.22-.54.44-.82.65-.27.21-.54.43-.81.66-.09.08-.2.09-.31,0-.34-.28-.81-.57-1.4-.87s-1.2-.46-1.81-.46c-.71,0-1.3.23-1.75.68-.45.46-.67,1.04-.65,1.74.02.71.3,1.26.83,1.65.53.39,1.21.41,2.03.04.07-.03.12-.04.17-.02.05.01.08.04.09.08.02.04.02.08,0,.12s-.05.08-.11.1ZM25.74,12.78s-.07.06-.11.06c-.06,0-.11-.04-.16-.12-.05-.08-.09-.14-.12-.18-.32-.35-.59-.43-.82-.22-.05.03-.05.08-.02.14.16.27.29.54.39.78.23.55.31,1.11.24,1.67-.07.56-.24,1.06-.51,1.51s-.63.81-1.07,1.1c-.44.28-.92.43-1.43.43-.67,0-1.24-.18-1.72-.53-.48-.35-.74-.86-.78-1.51l.1-.52c.03-.17.08-.34.12-.51.14-.43.12-.73-.05-.88-.09-.08-.2-.13-.32-.13-.11,0-.17-.06-.17-.15s.06-.15.17-.15c.09,0,.2.01.3.04s.21.05.3.06c.4.1.71.28.94.55.22.27.26.71.1,1.31-.15.56-.17,1.04-.06,1.42.11.39.45.6,1.04.64.51.03.92-.14,1.2-.49.29-.35.47-.81.54-1.38.05-.4-.02-.84-.23-1.33-.21-.49-.48-.98-.83-1.47-.79-1.11-1.1-1.9-.93-2.37.17-.47.53-.99,1.09-1.55h0s.05-.04.09-.04c.09,0,.14.05.14.15,0,.04-.02.08-.05.12-.32.38-.34.76-.05,1.14.2.28.4.55.6.83s.38.54.55.81c.05.07.1.07.15,0,.16-.22.32-.45.48-.67s.33-.45.49-.67c.07-.09.14-.1.22-.03.14.13.27.25.4.38.13.13.26.26.4.38.03.03.07.07.11.11.04.04.06.09.06.13,0,.04-.03.09-.08.15-.05.06-.1.12-.14.17l-.6.82Z"/>
    <path class="cls-1" d="M29.57,11.66v3.07c0,.13.02.22.08.26l.41.27c.09.06.22-.04.39-.31.04-.05.08-.07.14-.03.06.03.06.09,0,.16-.39.49-.7.98-.91,1.45-.06.1-.13.1-.21,0-.21-.27-.41-.48-.59-.63-.18-.14-.45-.26-.81-.35-.07-.02-.1-.05-.1-.1s.02-.08.07-.1c.25-.05.38-.29.37-.73v-2.68c0-.43-.07-.69-.21-.79-.17-.12-.3-.08-.41.13-.04.09-.09.11-.14.06-.05-.05-.05-.12,0-.22.11-.19.21-.39.31-.59.1-.2.2-.4.31-.61.06-.13.15-.15.25-.07.56.3.89.68,1,1.14.01.04.03.07.07.08.03.01.06,0,.09-.04l.87-1.12s.05-.04.08-.03c.03,0,.05.02.07.05l.59,1.27s.01.07-.01.11l-.68.91s-.06.04-.09.04c-.03,0-.05-.02-.06-.06l-.46-.95s-.04-.04-.07-.05c-.03,0-.06,0-.09.03l-.26.36s-.02.04-.02.06Z"/>
    <path class="cls-1" d="M33.13,14.91l-.04-3.47c0-.08-.01-.15-.03-.2-.09-.16-.17-.2-.23-.12l-.23.26c-.06.08-.12.08-.17.03-.05-.06-.05-.14.03-.25.17-.23.31-.46.45-.7.13-.23.27-.46.41-.69.06-.08.13-.08.21,0,.16.22.31.4.46.57.15.16.36.33.64.52.08.03.11.07.1.12,0,.05-.03.07-.08.08-.1.04-.18.11-.26.22-.08.1-.11.28-.11.52v2.68c0,.43.07.69.21.79.17.11.3.06.41-.14.04-.08.08-.1.14-.05.05.04.05.12,0,.22-.11.2-.22.4-.32.6-.1.2-.2.4-.3.6-.07.12-.16.14-.26.08-.34-.18-.59-.4-.76-.66-.17-.26-.26-.59-.26-.99ZM33.94,7.41c.42,0,.61.23.57.68-.02.23-.15.46-.38.69-.23.23-.41.34-.55.34-.14,0-.24-.12-.31-.36-.07-.24-.1-.46-.08-.66.01-.19.09-.36.25-.48.16-.13.32-.19.5-.19Z"/>
    <path class="cls-1" d="M38.14,11.25v3.54c0,.13.02.22.08.26l.41.26c.08.08.21-.03.39-.3.03-.05.08-.06.14-.03.06.04.06.09,0,.15-.4.49-.7.98-.91,1.45-.06.09-.13.09-.21,0-.21-.28-.41-.49-.59-.63-.18-.14-.45-.26-.81-.35-.06-.01-.09-.04-.1-.09s.02-.09.07-.11c.25-.07.38-.31.37-.73v-3.42c0-.08-.03-.11-.09-.11h-.67c-.05,0-.09-.02-.1-.07-.02-.05,0-.09.05-.12.45-.36.91-.79,1.38-1.3s.89-.99,1.28-1.44c.05-.06.1-.07.14-.03.05.04.05.09,0,.15-.17.24-.35.55-.52.94-.17.38-.28.73-.32,1.05,0,.04,0,.07,0,.09.02.03.05.04.08.04h.98s.05.01.07.03c.02.03.03.06.03.08l-.02.47c0,.07-.04.1-.1.1h-.98c-.05,0-.08.04-.08.11Z"/>
    <path class="cls-1" d="M42.3,8.56c.53-.16,1.01-.12,1.45.11.3.16.53.38.69.66.17.28.23.6.2.95-.03.35-.14.61-.31.78-.17.17-.31.3-.42.39-.11.09-.21.19-.31.29-.19.2-.21.38-.05.54.51.49.8.91.88,1.25.08.34.02.63-.16.89-.26.35-.53.69-.81,1.01-.29.32-.57.64-.85.96-.14.15-.22.14-.25-.03-.05-.23-.27-.44-.66-.61-.39-.17-.81-.34-1.24-.5-.08-.03-.08-.1-.02-.19.1-.12.21-.24.32-.35.11-.12.22-.23.33-.35.17-.18.23-.33.17-.47-.05-.14-.16-.29-.3-.46-.37-.43-.55-.83-.53-1.21.01-.38.13-.71.36-.99.21-.27.46-.51.72-.73.27-.22.52-.47.76-.74.03-.03.07-.02.12.03.5.5.92.75,1.26.76.34,0,.56-.11.66-.34.1-.23.09-.47-.03-.72-.12-.25-.32-.46-.59-.62-.41-.23-.86-.25-1.35-.06-.1.04-.16.02-.17-.07-.02-.09.03-.15.14-.17ZM42.18,12.93s.09.04.12,0l1.05-1.15s.04-.08.03-.12c-.01-.04-.04-.06-.09-.06-.21-.03-.45-.12-.71-.28-.42-.27-.69-.44-.82-.54-.13-.09-.29,0-.49.25-.25.33-.25.65,0,.95.25.3.55.62.9.94ZM41.4,14.24c-.04.07-.03.13.03.16.27.14.53.28.8.41.27.13.54.27.81.39.19.09.38-.03.56-.36.23-.42-.08-.97-.92-1.64-.13-.09-.29-.05-.48.13l-.79.91Z"/>
    <path class="cls-1" d="M47.31,16.58c0-.1-.06-.18-.14-.23s-.16-.1-.22-.15c-.43-.33-.74-.73-.92-1.2s-.28-.98-.3-1.51c-.05-1.2.24-2.12.87-2.74.22-.22.48-.41.77-.55.29-.14.59-.26.89-.34.08-.02.15.04.21.16l.66,1.49c.05.12.04.19-.04.21-.28.05-.53.16-.76.33-.11.08-.19.04-.26-.11l-.59-1.37c-.04-.09-.11-.1-.2-.04-.25.16-.41.56-.47,1.18s-.05,1.19.05,1.71c.18.97.48,1.6.92,1.87.44.27.87.32,1.31.13.06-.03.1-.03.13.01.03.05.02.09-.03.12-.3.17-.59.35-.87.53-.28.18-.52.37-.74.57-.03.03-.08.03-.15.03-.07,0-.1-.04-.1-.08Z"/>
    <path class="cls-1" d="M50.32,8.08c-.05-.08-.05-.14.01-.19.06-.04.11-.03.17.05.17.23.3.48.4.75.01.04.04.06.08.06.03,0,.06,0,.09-.05.22-.44.56-.78,1.03-1.02.47-.24.94-.33,1.42-.29.1,0,.15.05.15.13s-.05.12-.14.11c-.39-.03-.74.07-1.03.3-.29.23-.44.68-.43,1.34v1.42s.03.07.06.09.06.02.09,0c.21-.13.41-.27.62-.42.21-.15.4-.32.58-.51.14-.16.22-.13.24.08.01.16.07.3.17.42.1.12.2.24.28.36.51.73.77,1.51.78,2.35.03,1.24-.36,2.33-1.17,3.29-.8.95-1.54,1.68-2.19,2.18-.09.07-.16.08-.2.03-.04-.05-.03-.1.04-.17.53-.53,1.06-1.1,1.6-1.73.54-.62.78-1.61.74-2.97-.02-.53-.09-1.03-.22-1.5-.12-.47-.34-.86-.67-1.17-.17-.16-.39-.15-.69,0-.03.01-.05.04-.05.09l.02,3.82c0,.34.12.48.37.42.05-.02.1-.05.14-.09.04-.05.09-.09.14-.12.05-.04.1-.03.14,0,.04.04.04.09,0,.13-.18.23-.37.44-.56.63-.19.19-.33.41-.43.64-.05.1-.11.1-.2,0-.33-.4-.7-.71-1.09-.91-.13-.08-.14-.15-.03-.21.24-.09.36-.37.36-.83v-4.22c-.02-.57-.07-1.04-.18-1.4-.11-.36-.25-.67-.42-.92Z"/>
    <g>
      <path class="cls-1" d="M26.88,20.41v1.45h-.47v-3.48h.98c.22,0,.41.02.57.07.16.04.29.11.4.19.1.08.18.19.23.3.05.12.08.25.08.4,0,.12-.02.24-.06.34-.04.11-.09.2-.17.29s-.16.16-.27.22-.23.11-.36.14c.06.03.11.08.16.15l1.01,1.38h-.42c-.09,0-.15-.03-.19-.1l-.9-1.24s-.06-.07-.09-.08-.08-.03-.15-.03h-.36ZM26.88,20.07h.49c.14,0,.26-.02.36-.05.1-.03.19-.08.26-.14.07-.06.12-.13.16-.22.04-.08.05-.18.05-.28,0-.21-.07-.36-.2-.47-.14-.11-.34-.16-.61-.16h-.51v1.31Z"/>
      <path class="cls-1" d="M30.38,19.36c.15,0,.28.02.41.07s.23.12.32.21.16.21.21.34c.05.14.08.29.08.47,0,.07,0,.11-.02.14-.01.02-.04.03-.08.03h-1.63c0,.16.02.29.06.41s.09.21.16.29c.07.08.15.13.24.17s.2.06.32.06c.11,0,.2-.01.28-.04.08-.03.15-.05.2-.08.06-.03.1-.06.14-.08.04-.03.07-.04.1-.04.04,0,.06.01.08.04l.12.16c-.05.06-.12.12-.19.17-.07.05-.15.09-.24.12-.08.03-.17.05-.26.07-.09.02-.18.02-.27.02-.17,0-.33-.03-.47-.09-.14-.06-.27-.14-.37-.25-.1-.11-.19-.25-.24-.41-.06-.16-.09-.35-.09-.56,0-.17.03-.33.08-.48.05-.15.13-.28.23-.39.1-.11.22-.2.36-.26.14-.06.3-.09.48-.09ZM30.39,19.68c-.21,0-.37.06-.49.18-.12.12-.19.29-.22.5h1.34c0-.1-.01-.19-.04-.28-.03-.08-.07-.16-.12-.22-.05-.06-.12-.11-.2-.14-.08-.03-.16-.05-.26-.05Z"/>
      <path class="cls-1" d="M33.36,19.81s-.05.05-.09.05c-.02,0-.05,0-.08-.03-.03-.02-.07-.04-.11-.06-.04-.02-.1-.04-.16-.06-.06-.02-.13-.03-.22-.03-.07,0-.14,0-.2.03-.06.02-.11.04-.15.08s-.07.07-.09.11c-.02.04-.03.09-.03.14,0,.06.02.12.05.16s.08.08.14.11c.06.03.13.06.2.08.08.02.15.05.23.08.08.03.16.06.23.09.08.03.14.07.2.12.06.05.11.11.14.18.04.07.05.16.05.25,0,.11-.02.22-.06.31s-.1.18-.18.25c-.08.07-.18.13-.29.17-.11.04-.25.06-.4.06-.17,0-.33-.03-.47-.08-.14-.06-.26-.13-.35-.21l.1-.17s.03-.04.05-.05c.02-.01.04-.02.07-.02s.06.01.09.03c.03.02.07.05.12.08.05.03.1.05.17.08.07.02.15.03.25.03.08,0,.16-.01.22-.03.06-.02.12-.05.16-.09.04-.04.07-.08.09-.13.02-.05.03-.1.03-.16,0-.07-.02-.12-.05-.17-.04-.04-.08-.08-.14-.11-.06-.03-.13-.06-.2-.08-.08-.02-.16-.05-.24-.07s-.16-.06-.24-.09-.15-.07-.2-.13c-.06-.05-.11-.11-.14-.19-.04-.07-.05-.16-.05-.27,0-.09.02-.18.06-.27.04-.09.1-.16.17-.23.07-.07.17-.12.27-.16.11-.04.23-.06.37-.06.16,0,.31.03.44.08.13.05.24.12.33.21l-.1.16Z"/>
      <path class="cls-1" d="M34.8,21.9c-.19,0-.34-.05-.45-.16-.1-.11-.16-.26-.16-.47v-1.51h-.3s-.05,0-.07-.02-.03-.04-.03-.07v-.17l.4-.05.1-.76s.01-.04.03-.06c.02-.02.04-.02.07-.02h.22v.85h.7v.31h-.7v1.48c0,.1.03.18.08.23.05.05.11.08.19.08.05,0,.08,0,.12-.02s.06-.03.09-.04c.02-.01.04-.03.06-.04.02-.01.03-.02.04-.02.02,0,.04.01.06.04l.13.21c-.07.07-.16.12-.27.16s-.21.06-.32.06Z"/>
      <path class="cls-1" d="M37.67,21.86h-.19s-.08,0-.1-.02c-.03-.01-.04-.04-.05-.08l-.05-.23c-.06.06-.13.11-.19.16-.06.05-.13.08-.19.12-.07.03-.14.06-.22.07-.08.02-.16.02-.26.02s-.18-.01-.27-.04c-.08-.03-.16-.07-.22-.12-.06-.05-.11-.12-.15-.2-.04-.08-.05-.18-.05-.29,0-.1.03-.19.08-.28.05-.09.14-.17.26-.24.12-.07.27-.13.47-.17.19-.04.43-.07.71-.07v-.19c0-.19-.04-.34-.12-.44-.08-.1-.2-.15-.36-.15-.11,0-.19.01-.27.04-.07.03-.13.06-.19.09-.05.03-.1.06-.14.09-.04.03-.08.04-.11.04-.03,0-.05,0-.08-.02-.02-.02-.04-.03-.05-.06l-.08-.14c.14-.13.28-.23.44-.29.16-.06.33-.1.52-.1.14,0,.26.02.37.07.11.05.2.11.27.19.07.08.13.18.16.29s.06.24.06.38v1.57ZM36.55,21.6c.08,0,.15,0,.21-.02s.12-.04.18-.07c.06-.03.11-.06.16-.1.05-.04.1-.09.15-.14v-.51c-.2,0-.37.01-.51.04-.14.03-.25.06-.34.1s-.15.09-.19.14c-.04.06-.06.12-.06.19s.01.12.03.17c.02.05.05.09.08.12s.08.05.13.07c.05.01.1.02.16.02Z"/>
      <path class="cls-1" d="M38.7,19.4v1.57c0,.19.04.33.13.43.09.1.21.15.39.15.13,0,.24-.03.36-.09.11-.06.21-.14.31-.25v-1.81h.43v2.46h-.26c-.06,0-.1-.03-.12-.09l-.03-.26c-.11.12-.23.21-.36.29-.13.07-.28.11-.46.11-.13,0-.25-.02-.36-.07-.1-.04-.19-.11-.26-.19s-.12-.18-.16-.29c-.03-.11-.05-.24-.05-.38v-1.57h.43Z"/>
      <path class="cls-1" d="M41.02,21.86v-2.46h.25s.08,0,.1.03.03.05.04.09l.03.38c.08-.17.19-.31.31-.4.12-.1.27-.14.44-.14.07,0,.13,0,.18.02s.11.04.15.06l-.06.32s-.04.06-.08.06c-.02,0-.06,0-.1-.02-.05-.02-.11-.02-.2-.02-.15,0-.28.04-.38.13s-.19.21-.25.38v1.57h-.43Z"/>
      <path class="cls-1" d="M44.68,21.86h-.19s-.08,0-.1-.02c-.03-.01-.04-.04-.05-.08l-.05-.23c-.06.06-.13.11-.19.16-.06.05-.13.08-.19.12-.07.03-.14.06-.22.07-.08.02-.16.02-.26.02s-.18-.01-.27-.04c-.08-.03-.16-.07-.22-.12-.06-.05-.11-.12-.15-.2-.04-.08-.05-.18-.05-.29,0-.1.03-.19.08-.28.05-.09.14-.17.26-.24.12-.07.27-.13.47-.17.19-.04.43-.07.71-.07v-.19c0-.19-.04-.34-.12-.44-.08-.1-.2-.15-.36-.15-.11,0-.19.01-.27.04-.07.03-.13.06-.19.09-.05.03-.1.06-.14.09-.04.03-.08.04-.11.04-.03,0-.05,0-.08-.02-.02-.02-.04-.03-.05-.06l-.08-.14c.14-.13.28-.23.44-.29.16-.06.33-.1.52-.1.14,0,.26.02.37.07.11.05.2.11.27.19.07.08.13.18.16.29s.06.24.06.38v1.57ZM43.56,21.6c.08,0,.15,0,.21-.02s.12-.04.18-.07c.06-.03.11-.06.16-.1.05-.04.1-.09.15-.14v-.51c-.2,0-.37.01-.51.04-.14.03-.25.06-.34.1s-.15.09-.19.14c-.04.06-.06.12-.06.19s.01.12.03.17c.02.05.05.09.08.12s.08.05.13.07c.05.01.1.02.16.02Z"/>
      <path class="cls-1" d="M45.34,21.86v-2.46h.26c.06,0,.1.03.12.09l.03.27c.11-.12.23-.21.36-.29.13-.07.28-.11.46-.11.13,0,.25.02.36.07.1.04.19.11.26.19.07.08.12.18.16.3.04.12.05.24.05.38v1.57h-.43v-1.57c0-.19-.04-.33-.13-.43-.08-.1-.21-.15-.39-.15-.13,0-.25.03-.36.09-.11.06-.21.14-.31.25v1.81h-.43Z"/>
      <path class="cls-1" d="M48.77,21.9c-.19,0-.34-.05-.45-.16-.1-.11-.16-.26-.16-.47v-1.51h-.3s-.05,0-.07-.02-.03-.04-.03-.07v-.17l.4-.05.1-.76s.01-.04.03-.06c.02-.02.04-.02.07-.02h.22v.85h.7v.31h-.7v1.48c0,.1.03.18.08.23.05.05.11.08.19.08.05,0,.08,0,.12-.02s.06-.03.09-.04c.02-.01.04-.03.06-.04.02-.01.03-.02.04-.02.02,0,.04.01.06.04l.13.21c-.07.07-.16.12-.27.16s-.21.06-.32.06Z"/>
    </g>
    <line class="cls-6" x1="11.18" y1="11.98" x2="11.18" y2="19.72"/>
    <polyline class="cls-5" points="11.18 11.98 9.71 15.04 12.83 18.19"/>
    <line class="cls-5" x1="10.87" y1="19.72" x2="11.51" y2="19.72"/>
    <line class="cls-5" x1="12.61" y1="18.44" x2="12.85" y2="18.21"/>
    <line class="cls-8" x1="11.18" y1="11.98" x2="11.18" y2="19.72"/>
    <polyline class="cls-9" points="11.18 11.98 9.71 15.04 12.83 18.19"/>
    <line class="cls-9" x1="10.87" y1="19.72" x2="11.51" y2="19.72"/>
    <line class="cls-9" x1="12.61" y1="18.44" x2="12.85" y2="18.21"/>
    <path class="cls-3" d="M7.03,12.75c-1.03.65-1.33,1.52-1.74,2.2,0,0,1.2-1.74,4.75-2.62,1.97-.45,3.49-1.47,3.53-3.42-.03-1.57.07-3.09.49-3.49.14-.12.24-.14.49-.09.02,0,.04,0,.06.01l.24-.23s-.03-.01-.03-.01c-.03-.03.04-.67-.65-.71-.33,0-.47.27-.61.52s-.59,1.32-.7,2.1l-5.82,5.74Z"/>
    <line class="cls-7" x1="14.58" y1="5.34" x2="14.58" y2="5.34"/>
    <line class="cls-7" x1="14.58" y1="5.34" x2="14.58" y2="5.34"/>
    <path class="cls-2" d="M14.6,5.34c.97.19,1.45.31,1.68.37.14.04-1.11-.47-1.43-.6l-.24.23Z"/>
    <path class="cls-4" d="M12.85,7.01c-.59-.52-1.42.29-1.69.56l-4.67,5.28c1.29-.06,7.29-2.58,6.76-5.09-.11-.37-.25-.61-.4-.75"/>
  </g>
</svg>