<?xml version="1.0" encoding="UTF-8"?>
<svg id="Calque_2" data-name="Calque 2" xmlns="http://www.w3.org/2000/svg" viewBox="0 0 230 230">
  <defs>
    <style>
      .cls-1 {
        fill: #fff;
      }

      .cls-2 {
        fill: #334264;
      }

      .cls-3, .cls-4, .cls-5, .cls-6, .cls-7 {
        fill: none;
      }

      .cls-4, .cls-8, .cls-5, .cls-6, .cls-7 {
        stroke-width: 1.5px;
      }

      .cls-4, .cls-8, .cls-6 {
        stroke-linecap: round;
      }

      .cls-4, .cls-8, .cls-6, .cls-7 {
        stroke: #fff;
      }

      .cls-4, .cls-5, .cls-7 {
        stroke-miterlimit: 10;
      }

      .cls-8 {
        fill: #304567;
      }

      .cls-8, .cls-6 {
        stroke-linejoin: round;
      }

      .cls-5 {
        stroke: #231f20;
      }
    </style>
  </defs>
  <g id="Logo_final_230x230" data-name="Logo final 230x230">
    <rect class="cls-2" width="230" height="230"/>
    <path class="cls-6" d="M135.24,26.27c-.15-.16.02-3.42-3.42-3.64-1.68-.05-2.34,1.36-3.05,2.64s-2.97,6.65-3.53,10.56h0"/>
    <path class="cls-7" d="M96.08,64.75c-5.15,3.3-6.67,7.65-8.73,11.07,0,0,6.02-8.78,23.8-13.19,9.86-2.29,17.49-7.39,17.67-17.22-.14-7.93.35-15.55,2.44-17.58.71-.61,1.21-.69,2.48-.46.1.02.19.04.29.06"/>
    <line class="cls-5" x1="135.3" y1="27.43" x2="135.3" y2="27.43"/>
    <path class="cls-8" d="M134.03,27.42c4.35.86,6.77,1.42,8.4,1.87.17.05-6.07-2.55-7.18-3.02"/>
    <line class="cls-3" x1="125.15" y1="35.93" x2="96.08" y2="64.75"/>
    <line class="cls-5" x1="135.3" y1="27.43" x2="135.3" y2="27.43"/>
    <path class="cls-7" d="M125.25,35.83c-2.94-2.64-7.14,1.48-8.49,2.81l-23.39,26.59c6.49-.32,36.52-13.02,33.9-25.65-.53-1.86-1.23-3.05-2.02-3.76"/>
    <line class="cls-7" x1="116.88" y1="60.88" x2="116.88" y2="99.83"/>
    <polyline class="cls-4" points="116.88 60.88 109.52 76.27 125.17 92.16"/>
    <line class="cls-4" x1="115.28" y1="99.83" x2="118.48" y2="99.83"/>
    <line class="cls-4" x1="124.07" y1="93.42" x2="125.24" y2="92.25"/>
    <path class="cls-1" d="M82.57,128.54h8.65v2.28h-11.36v-20.06h2.71v17.78Z"/>
    <path class="cls-1" d="M93.61,109.72c.27.45.47.9.59,1.34.12.45.18.9.18,1.34,0,.85-.21,1.66-.62,2.43-.41.77-.99,1.48-1.72,2.12l-.77-.48c-.07-.05-.12-.1-.15-.15-.02-.06-.04-.11-.04-.17,0-.13.05-.24.14-.34.15-.18.29-.37.43-.58s.27-.43.38-.66c.11-.23.2-.47.27-.72.06-.25.1-.52.1-.8,0-.3-.04-.61-.13-.92s-.24-.65-.45-1.01c-.06-.1-.1-.21-.1-.31,0-.22.13-.39.38-.49l1.52-.62Z"/>
    <path class="cls-1" d="M114.18,130.83h-2.09c-.24,0-.44-.06-.59-.18-.15-.12-.26-.27-.33-.46l-1.87-4.84h-8.97l-1.87,4.84c-.06.17-.18.32-.33.45-.16.13-.35.2-.59.2h-2.09l8-20.06h2.75l8,20.06ZM101.07,123.38h7.47l-3.14-8.16c-.21-.5-.4-1.13-.6-1.89-.1.38-.2.73-.3,1.06-.1.32-.19.6-.29.85l-3.14,8.15Z"/>
    <path class="cls-1" d="M128.98,124.28c.1.25.19.5.29.75.09-.26.19-.51.29-.75.1-.24.22-.48.35-.72l6.77-12.33c.12-.21.25-.35.38-.39.13-.05.32-.07.56-.07h2v20.06h-2.37v-14.74c0-.2,0-.41.01-.63s.02-.45.04-.69l-6.85,12.54c-.23.42-.56.63-.98.63h-.39c-.42,0-.74-.21-.98-.63l-7.01-12.59c.03.24.05.48.06.71.01.23.02.45.02.64v14.74h-2.37v-20.06h2c.24,0,.43.02.56.07.13.05.26.18.38.39l6.91,12.35c.13.22.24.46.34.71Z"/>
    <path class="cls-1" d="M149.78,130.83h-2.71v-20.06h2.71v20.06Z"/>
    <path class="cls-1" d="M41.78,162.61c-3.7,1.85-7.3,1.96-10.81.31-3.55-1.67-5.62-4.9-6.21-9.69-.59-4.79.68-9.22,3.82-13.28,3.14-4.06,7.51-6.09,13.12-6.09,2.64,0,5.29.49,7.97,1.47,2.67.98,5.38,2.28,8.11,3.91,1.8,1.06,3.57,1.26,5.29.59.37-.17.65-.28.84-.34.41-.08.66.04.77.38.1.33-.07.7-.52,1.09-1.34,1.08-2.68,2.15-4.04,3.2-1.36,1.05-2.68,2.14-3.98,3.27-.46.42-.97.43-1.53.03-1.67-1.38-3.98-2.81-6.92-4.31-2.94-1.5-5.92-2.25-8.93-2.25-3.53,0-6.41,1.12-8.65,3.38-2.24,2.25-3.31,5.12-3.2,8.61.1,3.49,1.46,6.2,4.08,8.14,2.62,1.94,5.97,2.01,10.06.22.33-.15.61-.18.84-.11.22.07.38.2.46.38.08.18.08.38,0,.59s-.26.39-.54.52ZM60.72,162.95c-.17.19-.34.28-.53.28-.28,0-.53-.19-.77-.58-.23-.39-.43-.68-.6-.89-1.56-1.75-2.91-2.1-4.04-1.06-.22.17-.26.4-.11.69.78,1.35,1.43,2.65,1.95,3.88,1.11,2.73,1.51,5.48,1.18,8.25-.33,2.77-1.17,5.26-2.52,7.47s-3.12,4.02-5.28,5.42c-2.16,1.41-4.53,2.11-7.09,2.11-3.29,0-6.12-.87-8.5-2.61-2.38-1.74-3.67-4.23-3.87-7.48l.5-2.56c.17-.85.37-1.7.61-2.53.67-2.15.58-3.59-.25-4.34-.46-.42-.99-.62-1.59-.62-.56-.02-.84-.28-.84-.77s.28-.74.84-.77c.46,0,.97.06,1.5.19s1.04.23,1.5.31c1.99.48,3.53,1.38,4.62,2.7,1.1,1.32,1.26,3.48.5,6.48-.72,2.77-.82,5.11-.29,7.03.53,1.92,2.24,2.97,5.14,3.16,2.54.12,4.52-.68,5.93-2.41,1.41-1.73,2.3-4,2.67-6.81.26-1.96-.12-4.15-1.14-6.56-1.02-2.42-2.39-4.84-4.09-7.28-3.88-5.5-5.41-9.41-4.6-11.73.82-2.32,2.62-4.87,5.4-7.64v-.03c.09-.1.24-.16.45-.16.46,0,.7.25.7.75,0,.21-.08.41-.25.59-1.58,1.88-1.66,3.76-.25,5.66,1,1.38,1.99,2.73,2.97,4.08.97,1.34,1.88,2.67,2.72,3.98.24.33.49.34.75.03.78-1.1,1.57-2.2,2.37-3.3.8-1.09,1.61-2.2,2.42-3.33.33-.46.7-.51,1.09-.16.67.62,1.32,1.26,1.96,1.89.64.64,1.3,1.27,1.96,1.89.17.15.35.32.56.53.2.21.31.43.31.66,0,.19-.13.43-.38.73-.25.3-.48.58-.68.83l-2.95,4.03Z"/>
    <path class="cls-1" d="M79.63,157.39l-.03,15.16c0,.67.15,1.09.45,1.28l2.01,1.31c.43.29,1.08-.22,1.95-1.53.19-.27.42-.33.7-.17.28.16.28.42,0,.8-1.95,2.44-3.45,4.83-4.48,7.19-.32.48-.66.48-1.03,0-1.05-1.35-2.02-2.39-2.92-3.09-.91-.71-2.23-1.29-3.98-1.75-.33-.1-.5-.27-.5-.5s.12-.4.36-.5c1.24-.23,1.86-1.43,1.84-3.59v-13.22c0-2.12-.35-3.43-1.06-3.91-.82-.6-1.49-.39-2.01.66-.2.44-.44.54-.7.31-.26-.23-.25-.59.03-1.09.54-.96,1.05-1.94,1.55-2.94.49-1,1-2,1.52-3,.32-.62.73-.74,1.26-.34,2.74,1.48,4.39,3.35,4.93,5.63.06.21.17.34.33.39.17.05.32-.02.45-.2l4.29-5.53c.11-.12.24-.18.39-.17.15.01.27.1.36.27l2.92,6.28c.07.19.06.36-.06.53l-3.34,4.5c-.13.15-.27.21-.43.19-.16-.02-.26-.11-.32-.28l-2.26-4.69c-.07-.12-.19-.2-.35-.23-.16-.03-.3.03-.43.17l-1.31,1.78c-.07.08-.11.19-.11.31Z"/>
    <path class="cls-1" d="M97.21,173.48l-.2-17.12c0-.4-.06-.72-.17-.97-.45-.81-.83-1.01-1.14-.59l-1.11,1.28c-.3.38-.58.42-.85.12-.27-.29-.23-.7.13-1.22.82-1.15,1.55-2.29,2.2-3.44.65-1.15,1.32-2.28,2.01-3.41.3-.4.64-.39,1.03.03.78,1.06,1.54,2,2.28,2.8.74.8,1.8,1.65,3.18,2.55.39.17.56.36.52.59-.05.23-.17.35-.38.38-.48.21-.91.57-1.28,1.08-.37.51-.56,1.36-.56,2.55v13.22c0,2.12.35,3.43,1.06,3.91.82.54,1.49.31,2.01-.69.19-.4.41-.48.68-.27.27.22.26.58-.01,1.08-.56.98-1.08,1.96-1.56,2.95-.48.99-.97,1.97-1.48,2.95-.35.58-.79.71-1.31.38-1.67-.9-2.93-1.99-3.77-3.28-.85-1.29-1.27-2.92-1.27-4.88ZM101.25,136.39c2.06,0,3,1.11,2.81,3.34-.11,1.12-.74,2.26-1.88,3.39-1.14,1.14-2.05,1.69-2.72,1.67-.67,0-1.18-.59-1.53-1.78-.35-1.19-.49-2.28-.42-3.28.06-.96.47-1.75,1.24-2.39.77-.64,1.6-.95,2.49-.95Z"/>
    <path class="cls-1" d="M121.99,155.36l-.03,17.5c0,.65.14,1.07.42,1.28l2.01,1.28c.39.38,1.04-.12,1.95-1.5.17-.27.39-.31.68-.12.29.19.3.44.04.75-1.99,2.44-3.48,4.83-4.48,7.19-.32.44-.66.44-1.03,0-1.04-1.38-2.01-2.41-2.9-3.09-.89-.69-2.22-1.27-3.98-1.75-.3-.06-.46-.22-.47-.47s.09-.43.33-.53c1.24-.33,1.86-1.53,1.84-3.59l-.03-16.91c.02-.38-.12-.56-.42-.56h-3.29c-.26,0-.43-.11-.5-.34-.07-.23,0-.43.25-.59,2.23-1.77,4.5-3.91,6.81-6.41,2.31-2.5,4.42-4.88,6.31-7.12.24-.29.48-.35.71-.17.23.18.24.43.01.77-.85,1.19-1.71,2.73-2.58,4.62-.86,1.9-1.39,3.62-1.57,5.19-.04.21-.03.36.03.47.11.12.24.19.39.19h4.82c.13,0,.24.05.33.16.09.15.14.28.14.41l-.11,2.34c-.04.33-.2.5-.47.5h-4.82c-.26,0-.39.18-.39.53Z"/>
    <path class="cls-1" d="M142.55,142.11c2.6-.77,4.99-.59,7.16.53,1.47.79,2.61,1.89,3.43,3.28.82,1.4,1.14,2.96.97,4.69-.17,1.73-.67,3.01-1.52,3.84-.85.83-1.54,1.48-2.08,1.94-.54.46-1.05.94-1.53,1.44-.95,1-1.02,1.9-.22,2.69,2.51,2.44,3.95,4.49,4.33,6.16.38,1.67.12,3.14-.79,4.41-1.26,1.75-2.6,3.41-4.02,4.98-1.42,1.57-2.83,3.16-4.22,4.77-.69.75-1.1.71-1.25-.12-.24-1.15-1.33-2.15-3.27-3.02-1.94-.86-3.99-1.69-6.14-2.48-.39-.17-.42-.48-.08-.94.5-.58,1.02-1.17,1.56-1.75.54-.58,1.08-1.16,1.62-1.72.84-.88,1.12-1.65.85-2.33-.27-.68-.77-1.44-1.49-2.3-1.82-2.12-2.7-4.11-2.63-5.97.07-1.85.66-3.49,1.8-4.91,1.06-1.31,2.25-2.52,3.58-3.61,1.33-1.09,2.59-2.32,3.77-3.67.15-.15.34-.09.58.16,2.49,2.48,4.56,3.73,6.23,3.75,1.66.02,2.74-.53,3.25-1.66.5-1.15.45-2.34-.14-3.58-.59-1.24-1.56-2.27-2.9-3.08-2.02-1.12-4.24-1.23-6.66-.31-.48.21-.77.09-.86-.34-.09-.44.14-.72.7-.84ZM141.94,163.67c.22.19.43.18.61-.03l5.18-5.69c.17-.21.22-.4.15-.58-.07-.18-.21-.28-.43-.3-1.06-.12-2.23-.58-3.51-1.38-2.06-1.31-3.41-2.2-4.04-2.66-.63-.46-1.44-.04-2.42,1.25-1.24,1.65-1.25,3.22-.01,4.72,1.23,1.5,2.72,3.05,4.47,4.66ZM138.1,170.17c-.19.35-.13.62.17.81,1.32.69,2.64,1.36,3.96,2.03,1.32.67,2.65,1.31,3.98,1.94.93.46,1.86-.14,2.79-1.78,1.15-2.06-.37-4.77-4.57-8.12-.65-.44-1.45-.23-2.4.62l-3.93,4.5Z"/>
    <path class="cls-1" d="M167.29,181.73c-.04-.5-.27-.88-.71-1.12s-.8-.5-1.1-.75c-2.14-1.62-3.64-3.61-4.53-5.95s-1.38-4.83-1.49-7.45c-.22-5.94,1.21-10.46,4.29-13.56,1.1-1.1,2.36-2,3.79-2.7,1.43-.7,2.9-1.27,4.4-1.7.41-.08.75.18,1.03.78l3.26,7.38c.26.6.2.95-.2,1.03-1.37.23-2.63.77-3.76,1.62-.52.38-.95.19-1.28-.56l-2.9-6.75c-.19-.44-.52-.5-1-.19-1.23.81-2.01,2.75-2.34,5.81s-.26,5.88.22,8.44c.87,4.81,2.39,7.9,4.54,9.25,2.15,1.35,4.31,1.56,6.46.62.28-.15.49-.12.64.06.15.27.1.47-.14.59-1.5.85-2.94,1.73-4.3,2.62-1.37.9-2.59,1.83-3.66,2.81-.17.12-.41.17-.74.12-.33-.04-.49-.18-.49-.41Z"/>
    <path class="cls-1" d="M182.17,139.73c-.24-.4-.22-.7.06-.92.28-.22.56-.14.84.23.82,1.15,1.48,2.37,1.98,3.69.06.21.19.31.39.31.17.04.32-.04.45-.25,1.08-2.17,2.77-3.84,5.08-5.02,2.31-1.18,4.66-1.65,7.03-1.42.48.02.72.24.72.66s-.23.6-.7.56c-1.95-.15-3.65.35-5.1,1.5-1.45,1.15-2.16,3.35-2.14,6.62l.06,7c0,.21.07.36.22.45s.3.09.45-.02c1.02-.62,2.05-1.31,3.08-2.06,1.03-.75,1.98-1.59,2.85-2.53.69-.77,1.08-.64,1.17.41.07.77.36,1.46.86,2.06.5.6.97,1.2,1.39,1.78,2.51,3.58,3.8,7.46,3.87,11.62.13,6.12-1.79,11.54-5.77,16.23-3.97,4.7-7.59,8.29-10.84,10.77-.45.35-.78.41-.99.17-.21-.24-.15-.52.18-.83,2.62-2.6,5.26-5.45,7.92-8.53,2.66-3.08,3.88-7.97,3.63-14.66-.11-2.62-.47-5.1-1.07-7.42-.6-2.32-1.7-4.25-3.3-5.8-.82-.77-1.95-.76-3.4.03-.17.06-.25.22-.25.47l.11,18.88c0,1.69.6,2.39,1.81,2.09.26-.08.49-.24.7-.47.2-.23.43-.43.68-.61.25-.18.48-.16.68.05.2.21.2.43,0,.66-.91,1.12-1.83,2.17-2.76,3.12-.93.96-1.64,2.01-2.14,3.16-.22.5-.56.5-1,0-1.65-2-3.45-3.5-5.4-4.5-.63-.38-.68-.72-.14-1.03,1.19-.46,1.77-1.83,1.75-4.12l-.06-20.88c-.02-2.81-.3-5.11-.85-6.91-.55-1.79-1.24-3.31-2.07-4.56Z"/>
    <g>
      <path class="cls-1" d="M66.33,200.63v7.18h-2.31v-17.2h4.85c1.09,0,2.02.11,2.81.33.79.22,1.44.54,1.96.95.51.42.9.92,1.14,1.51.25.59.37,1.25.37,1.97,0,.61-.1,1.18-.29,1.7-.19.53-.47,1-.83,1.42s-.81.78-1.33,1.07-1.12.52-1.78.67c.29.17.54.41.77.73l5.01,6.83h-2.06c-.42,0-.73-.16-.93-.49l-4.46-6.14c-.14-.19-.28-.33-.44-.41s-.4-.13-.72-.13h-1.76ZM66.33,198.94h2.43c.68,0,1.28-.08,1.79-.25.52-.16.95-.4,1.29-.7.35-.3.61-.66.78-1.07.18-.42.26-.88.26-1.38,0-1.02-.34-1.8-1.01-2.32-.67-.52-1.68-.78-3.01-.78h-2.54v6.49Z"/>
      <path class="cls-1" d="M83.67,195.46c.73,0,1.4.12,2.01.37s1.15.6,1.59,1.06.8,1.03,1.05,1.7c.25.68.38,1.45.38,2.31,0,.34-.04.56-.11.67-.07.11-.21.17-.41.17h-8.07c.02.77.12,1.44.31,2s.46,1.04.79,1.42c.33.38.73.66,1.2.85s.98.28,1.56.28c.54,0,1-.06,1.38-.19.39-.12.72-.26,1-.4.28-.14.51-.28.7-.4.19-.12.35-.19.48-.19.18,0,.31.07.41.2l.6.78c-.26.32-.58.6-.95.83-.37.24-.76.43-1.18.58-.42.15-.85.27-1.3.34-.45.08-.89.11-1.33.11-.84,0-1.61-.14-2.32-.43-.71-.28-1.32-.7-1.83-1.25-.52-.55-.92-1.23-1.2-2.03-.29-.81-.43-1.74-.43-2.78,0-.85.13-1.64.39-2.38.26-.74.63-1.37,1.12-1.91.49-.54,1.08-.96,1.78-1.27.7-.31,1.49-.46,2.37-.46ZM83.72,197.03c-1.03,0-1.84.3-2.43.89-.59.6-.96,1.42-1.1,2.48h6.6c0-.5-.07-.95-.2-1.36-.14-.41-.34-.77-.6-1.07-.26-.3-.58-.53-.96-.7-.38-.16-.81-.25-1.3-.25Z"/>
      <path class="cls-1" d="M98.36,197.66c-.1.18-.24.26-.44.26-.12,0-.26-.04-.41-.13-.15-.09-.34-.19-.56-.29-.22-.11-.48-.21-.78-.3-.3-.09-.66-.14-1.08-.14-.36,0-.68.05-.97.14-.29.09-.53.22-.74.38s-.36.35-.47.56c-.11.21-.16.44-.16.69,0,.31.09.57.27.78s.42.39.71.54c.29.15.63.29,1.01.4.38.12.76.24,1.16.37.4.13.78.28,1.16.44.38.16.71.36,1.01.6.3.24.53.53.71.88.18.35.27.77.27,1.25,0,.56-.1,1.08-.3,1.55s-.5.89-.89,1.24c-.39.35-.87.62-1.44.82-.57.2-1.22.3-1.96.3-.85,0-1.61-.14-2.3-.41-.69-.28-1.27-.63-1.75-1.06l.5-.82c.06-.1.14-.18.23-.24.09-.06.2-.08.35-.08s.3.06.46.17c.16.11.35.24.58.37.23.14.5.26.83.37.32.11.73.17,1.22.17.42,0,.78-.05,1.09-.16.31-.11.57-.25.78-.44.21-.18.36-.4.46-.64.1-.24.15-.5.15-.77,0-.34-.09-.61-.27-.83-.18-.22-.42-.41-.71-.56-.3-.16-.63-.29-1.01-.41-.38-.12-.77-.24-1.16-.37s-.78-.27-1.16-.44-.72-.37-1.01-.62c-.3-.25-.53-.55-.71-.92-.18-.36-.27-.81-.27-1.33,0-.46.1-.91.29-1.34.19-.43.47-.8.84-1.13.37-.32.82-.58,1.35-.77.54-.19,1.15-.29,1.83-.29.8,0,1.51.13,2.15.38.63.25,1.18.6,1.65,1.04l-.48.78Z"/>
      <path class="cls-1" d="M105.49,208c-.96,0-1.69-.27-2.21-.8-.52-.54-.77-1.31-.77-2.32v-7.44h-1.46c-.13,0-.24-.04-.32-.11s-.13-.19-.13-.35v-.85l1.99-.25.49-3.76c.02-.12.07-.22.16-.29.09-.08.2-.11.33-.11h1.08v4.19h3.47v1.55h-3.47v7.3c0,.51.12.89.37,1.14.25.25.57.37.96.37.22,0,.42-.03.58-.09s.31-.13.43-.2c.12-.07.22-.14.31-.2.08-.06.16-.09.22-.09.11,0,.21.07.3.2l.62,1.02c-.37.34-.81.61-1.33.81s-1.05.29-1.6.29Z"/>
      <path class="cls-1" d="M119.65,207.81h-.95c-.21,0-.38-.03-.5-.1-.13-.06-.21-.2-.25-.41l-.24-1.13c-.32.29-.63.55-.93.77-.3.23-.62.42-.96.58-.33.16-.69.27-1.07.35-.38.08-.8.12-1.26.12s-.91-.07-1.32-.2c-.41-.13-.77-.33-1.07-.6-.3-.27-.54-.6-.72-1.01-.18-.41-.27-.88-.27-1.44,0-.48.13-.95.4-1.39.26-.45.69-.84,1.28-1.19.59-.35,1.35-.63,2.31-.85.95-.22,2.11-.33,3.48-.33v-.95c0-.95-.2-1.67-.6-2.16-.4-.49-1-.73-1.79-.73-.52,0-.96.07-1.31.2-.36.13-.66.28-.92.44-.26.16-.48.31-.67.44-.19.13-.37.2-.56.2-.14,0-.27-.04-.38-.11-.11-.08-.19-.17-.26-.28l-.38-.68c.67-.65,1.39-1.13,2.17-1.45.77-.32,1.63-.48,2.57-.48.68,0,1.28.11,1.81.34.53.22.97.54,1.33.94.36.4.63.88.81,1.45s.28,1.19.28,1.87v7.78ZM114.12,206.5c.38,0,.72-.04,1.03-.11s.6-.18.88-.32c.28-.14.54-.31.79-.51.25-.2.5-.43.74-.68v-2.51c-.98,0-1.82.06-2.5.19-.69.12-1.25.29-1.68.49s-.74.44-.94.71c-.2.27-.29.58-.29.92s.05.6.16.83c.1.23.24.42.42.57s.38.26.62.33c.24.07.5.1.78.1Z"/>
      <path class="cls-1" d="M124.73,195.65v7.75c0,.92.21,1.63.63,2.14.42.5,1.06.76,1.92.76.62,0,1.21-.15,1.76-.44.55-.3,1.06-.71,1.52-1.24v-8.96h2.13v12.16h-1.27c-.3,0-.5-.15-.57-.44l-.17-1.31c-.53.58-1.12,1.05-1.77,1.41-.65.36-1.41.53-2.25.53-.66,0-1.25-.11-1.75-.33-.51-.22-.93-.53-1.28-.93s-.6-.88-.77-1.45c-.17-.57-.26-1.2-.26-1.88v-7.75h2.13Z"/>
      <path class="cls-1" d="M136.2,207.81v-12.16h1.22c.23,0,.39.04.48.13s.15.24.18.46l.14,1.9c.42-.85.93-1.51,1.54-1.99.61-.48,1.33-.71,2.15-.71.34,0,.64.04.91.11s.52.18.75.32l-.28,1.6c-.06.2-.18.3-.37.3-.11,0-.28-.04-.52-.11-.23-.08-.55-.11-.97-.11-.74,0-1.36.22-1.86.65s-.92,1.06-1.25,1.88v7.74h-2.13Z"/>
      <path class="cls-1" d="M154.31,207.81h-.95c-.21,0-.38-.03-.5-.1-.13-.06-.21-.2-.25-.41l-.24-1.13c-.32.29-.63.55-.93.77-.3.23-.62.42-.96.58-.33.16-.69.27-1.07.35-.38.08-.8.12-1.26.12s-.91-.07-1.32-.2c-.41-.13-.77-.33-1.07-.6-.3-.27-.54-.6-.72-1.01-.18-.41-.27-.88-.27-1.44,0-.48.13-.95.4-1.39.26-.45.69-.84,1.28-1.19.59-.35,1.35-.63,2.31-.85.95-.22,2.11-.33,3.48-.33v-.95c0-.95-.2-1.67-.6-2.16-.4-.49-1-.73-1.79-.73-.52,0-.96.07-1.31.2-.36.13-.66.28-.92.44-.26.16-.48.31-.67.44-.19.13-.37.2-.56.2-.14,0-.27-.04-.38-.11-.11-.08-.19-.17-.26-.28l-.38-.68c.67-.65,1.39-1.13,2.17-1.45.77-.32,1.63-.48,2.57-.48.68,0,1.28.11,1.81.34.53.22.97.54,1.33.94.36.4.63.88.81,1.45s.28,1.19.28,1.87v7.78ZM148.78,206.5c.38,0,.72-.04,1.03-.11s.6-.18.88-.32c.28-.14.54-.31.79-.51.25-.2.5-.43.74-.68v-2.51c-.98,0-1.82.06-2.5.19-.69.12-1.25.29-1.68.49s-.74.44-.94.71c-.2.27-.29.58-.29.92s.05.6.16.83c.1.23.24.42.42.57s.38.26.62.33c.24.07.5.1.78.1Z"/>
      <path class="cls-1" d="M157.54,207.81v-12.16h1.27c.3,0,.5.15.58.44l.17,1.32c.53-.58,1.12-1.06,1.77-1.42.65-.36,1.4-.54,2.26-.54.66,0,1.25.11,1.75.33.51.22.93.53,1.27.94.34.4.6.89.77,1.46.18.57.26,1.2.26,1.88v7.74h-2.13v-7.74c0-.92-.21-1.63-.63-2.14-.42-.51-1.06-.76-1.92-.76-.63,0-1.22.15-1.77.46-.55.3-1.05.72-1.52,1.24v8.95h-2.13Z"/>
      <path class="cls-1" d="M174.53,208c-.96,0-1.69-.27-2.21-.8-.52-.54-.77-1.31-.77-2.32v-7.44h-1.46c-.13,0-.24-.04-.32-.11s-.13-.19-.13-.35v-.85l1.99-.25.49-3.76c.02-.12.07-.22.16-.29.09-.08.2-.11.33-.11h1.08v4.19h3.47v1.55h-3.47v7.3c0,.51.12.89.37,1.14.25.25.57.37.96.37.22,0,.42-.03.58-.09s.31-.13.43-.2c.12-.07.22-.14.31-.2.08-.06.16-.09.22-.09.11,0,.21.07.3.2l.62,1.02c-.37.34-.81.61-1.33.81s-1.05.29-1.6.29Z"/>
    </g>
  </g>
</svg>