<?xml version="1.0" encoding="UTF-8"?>
<svg id="Calque_2" data-name="Calque 2" xmlns="http://www.w3.org/2000/svg" viewBox="0 0 49.2 49.2">
  <defs>
    <style>
      .cls-1, .cls-2, .cls-3, .cls-4, .cls-5, .cls-6, .cls-7 {
        stroke-width: .5px;
      }

      .cls-1, .cls-2, .cls-3, .cls-4, .cls-6 {
        stroke: #fff;
      }

      .cls-1, .cls-2, .cls-3, .cls-5, .cls-7 {
        stroke-miterlimit: 10;
      }

      .cls-1, .cls-2, .cls-4, .cls-6, .cls-7 {
        fill: #fff;
      }

      .cls-1, .cls-3, .cls-4 {
        stroke-linecap: round;
      }

      .cls-3, .cls-8, .cls-5 {
        fill: none;
      }

      .cls-4, .cls-6 {
        stroke-linejoin: round;
      }

      .cls-5 {
        stroke: #231f20;
      }

      .cls-9 {
        fill: #304567;
      }

      .cls-7 {
        stroke: #304567;
      }
    </style>
  </defs>
  <g id="Favicon">
    <circle class="cls-9" cx="24.6" cy="24.6" r="24.6"/>
    <line class="cls-8" x1="27.56" y1="14.24" x2="14.72" y2="26.9"/>
    <path class="cls-6" d="M14.72,26.9c-2.27,1.45-2.94,3.36-3.85,4.86,0,0,2.66-3.86,10.51-5.8,4.35-1.01,7.73-3.24,7.8-7.57-.06-3.48.16-6.83,1.08-7.72.31-.27.53-.3,1.09-.2.04,0,.09.02.13.03l.54-.51s-.07-.03-.07-.03c-.06-.07.08-1.47-1.43-1.57-.74-.02-1.03.6-1.35,1.16s-1.31,2.92-1.56,4.64l-.04.04"/>
    <line class="cls-5" x1="31.44" y1="10.49" x2="31.44" y2="10.49"/>
    <path class="cls-4" d="M31.48,10.5c1.92.38,2.99.62,3.71.82.08.02-2.68-1.12-3.17-1.33l-.54.51Z"/>
    <path class="cls-7" d="M27.6,14.2c-1.3-1.16-3.15.65-3.75,1.24l-10.33,11.68c2.86-.14,16.13-5.72,14.97-11.27-.23-.82-.54-1.34-.89-1.65"/>
    <line class="cls-2" x1="23.91" y1="25.2" x2="23.91" y2="42.31"/>
    <polyline class="cls-3" points="23.91 25.2 20.66 31.96 27.57 38.94"/>
    <line class="cls-1" x1="23.21" y1="42.31" x2="24.63" y2="42.31"/>
    <line class="cls-1" x1="27.08" y1="39.5" x2="27.6" y2="38.98"/>
  </g>
</svg>